<svg width="51" height="58" viewBox="0 0 51 58" fill="none" xmlns="http://www.w3.org/2000/svg">
<path fill-rule="evenodd" clip-rule="evenodd" d="M19.0393 3.26836C15.5876 5.06974 12.7507 6.59067 12.7615 6.65539C12.7615 6.81719 21.0564 11.0132 21.3476 11.0024C21.4771 11.0024 22.4479 10.5494 23.505 10.01L25.425 9.02846L27.5176 10.1071L29.6102 11.1858L33.0404 9.64329C38.1964 7.32415 38.7357 7.06528 38.6494 6.98977C38.5416 6.87112 36.6863 5.87874 31.6597 3.23601C29.2327 1.96318 26.8812 0.701132 26.4281 0.453039C25.9751 0.194158 25.5436 0 25.4681 0C25.3926 0 22.491 1.46699 19.0393 3.26836ZM3.88404 11.1211L0.281295 12.9764L0.281295 21.1311C0.281295 25.6184 0.324442 29.2858 0.389162 29.2858C0.443095 29.2858 2.21211 28.52 4.32629 27.5816L8.15555 25.8773L8.15555 17.2803L10.0216 18.2942C11.4671 19.0816 12.9017 19.8583 14.3471 20.6457L16.8064 21.9725L17.8959 21.4763C18.5862 21.1635 19.2658 20.8507 19.9454 20.5378C20.4739 20.2897 21.7683 19.7073 22.8254 19.2434C23.8825 18.7796 24.8533 18.305 24.9935 18.1971C25.1769 18.0569 22.9333 16.8164 16.6986 13.6128C11.9956 11.1966 7.99375 9.2334 7.81038 9.24419C7.62701 9.25498 5.858 10.0963 3.88404 11.1211ZM39.2858 11.6388C36.8373 12.7499 34.8309 13.6991 34.8309 13.753C34.8309 13.807 36.1685 14.6052 37.7973 15.522C39.4369 16.4389 40.7636 17.2371 40.7636 17.3018C40.7636 17.3666 39.3182 18.0677 37.5492 18.8551C35.7802 19.6533 31.3145 21.6704 27.6147 23.3424L15.2424 28.9407C12.125 30.3429 9.32051 31.6158 9.0077 31.756C2.65436 34.636 0.896134 35.4343 0.658828 35.5745C0.421522 35.7147 0.367588 36.5129 0.324441 40.5364L0.270508 45.3364L3.48493 46.976L6.69935 48.6156L11.165 46.5985C13.6136 45.4874 15.6307 44.5274 15.6307 44.4519C15.6307 44.3764 15.1777 44.0852 14.6275 43.7939C14.0774 43.5027 12.934 42.8555 12.0819 42.3593C11.2405 41.8631 10.3992 41.4101 10.2158 41.3454C10.0324 41.2806 9.88142 41.1836 9.88142 41.1081C9.88142 41.0433 11.8446 40.1049 14.25 39.037C18.9098 36.9552 22.4694 35.348 30.1172 31.8854C33.5366 30.3429 36.9559 28.7897 40.3861 27.2472C43.3956 25.888 46.8904 24.3024 48.1525 23.7199L50.45 22.6628L50.504 17.8088L50.5579 12.9548L47.3003 11.2937C45.5097 10.3768 43.9673 9.62172 43.8917 9.62172C43.8055 9.62172 41.7344 10.5386 39.2858 11.6388ZM49.5871 29.1564C49.1017 29.3937 48.1525 29.836 47.4729 30.138C46.7933 30.44 45.499 31.0225 44.6037 31.4324L42.9749 32.1767L42.9425 36.4374C42.9209 38.7781 42.8346 40.6874 42.7484 40.6766C42.5542 40.6442 39.5016 39.0802 36.4274 37.4298C34.2053 36.2433 34.0651 36.1893 33.5473 36.4482C33.2453 36.5992 31.4439 37.4082 29.5455 38.2388C27.647 39.0802 26.029 39.8136 25.9535 39.8892C25.878 39.9539 29.6965 42.0249 34.4534 44.4951L43.0827 48.9823L46.7718 47.0731C48.7997 46.0268 50.5255 45.0668 50.601 44.9481C50.7844 44.6784 50.7628 28.6926 50.5903 28.7142C50.5147 28.7249 50.0617 28.9191 49.5871 29.1564ZM29.1572 47.9145C28.5208 48.1841 27.8736 48.4646 27.2371 48.745C25.3063 49.5756 25.6839 49.608 23.3863 48.4646C21.8546 47.6987 21.1966 47.4722 20.9054 47.5801C20.6896 47.6664 18.8451 48.4969 16.7957 49.4246C14.757 50.3522 13.0095 51.1181 12.9233 51.1181C12.0603 51.1181 13.4949 51.9702 18.9961 54.7424L25.4466 58L28.1648 56.6624C29.6534 55.929 32.6736 54.4512 34.8525 53.3833C37.0422 52.3154 38.8004 51.4201 38.7681 51.377C38.7357 51.3446 36.902 50.4062 34.6907 49.2844L30.6781 47.2565L29.1572 47.9145Z" fill="white"/>
</svg>
