<svg width="70" height="70" viewBox="0 0 70 70" fill="none" xmlns="http://www.w3.org/2000/svg">
<path fill-rule="evenodd" clip-rule="evenodd" d="M27.7275 13.7945C27.54 12.682 27.3988 11.5822 27.3075 10.4822C27.17 8.83217 27.255 7.16955 27.2063 5.51955C27.185 4.81955 27.1013 2.99458 27.135 2.73208C27.4413 0.444578 29.2875 0.0945352 29.8275 0.0320352C30.0887 -0.00546475 32.7712 -0.305331 33.35 2.66967C34.06 6.30717 34.2875 9.96962 34.0363 13.5571C34.6225 16.6071 35.625 19.6446 36.9488 22.3946C42.2163 33.3321 52.2537 34.3946 63.1287 34.2946C64.8012 34.2696 66.19 35.5821 66.2775 37.2446C66.365 38.9196 65.12 40.3696 63.455 40.5196C57.3763 41.1071 46.5912 45.9821 42.8625 51.0571C42.0825 52.1196 41.6287 54.6822 41.0287 57.1947C40.1912 60.6822 39.195 64.1321 38.0788 65.5821C37.9113 65.8071 35.875 68.1072 35.2675 68.4447C33.8075 69.2447 32.6388 68.7821 31.975 68.3571C31.3113 67.9321 30.56 67.0946 30.26 65.7071C29.9463 64.2571 30.2113 61.282 30.1625 60.6445C29.985 58.332 29.5225 53.7946 28.5788 49.8946C28.07 47.7946 27.5275 45.8571 26.63 44.8946C23.3075 41.3321 17.995 41.8571 13.5213 42.4446C13.0075 42.5071 12.4938 42.5821 11.9813 42.6446C10.16 43.1821 8.22622 43.5821 6.18247 43.8196C3.09622 44.1821 2.58876 41.3446 2.56126 41.1571C2.50376 40.7446 2.28999 38.6196 4.61624 37.7696C4.86999 37.6821 6.74251 37.2696 7.46376 37.1071C8.46876 36.8821 9.48498 36.7071 10.505 36.5446C21.0412 33.2696 26.7638 24.0695 27.7275 13.7945ZM31.3438 25.1572C35.3213 33.3822 41.3575 37.3571 48.5125 39.1571H48.5113C44.0438 41.4946 39.98 44.4197 37.8262 47.3572C37.0087 48.4697 36.2588 50.7071 35.5825 53.2196C35.2163 50.8821 34.7213 48.3945 34.0675 46.2695C33.3238 43.8445 32.3225 41.8322 31.205 40.6322C29.0475 38.3197 26.34 37.0321 23.4287 36.3946C26.9137 33.3071 29.5563 29.4572 31.3438 25.1572Z" fill="white"/>
</svg>
