<svg width="44" height="42" viewBox="0 0 44 42" fill="none" xmlns="http://www.w3.org/2000/svg">
<path d="M6 0V6H0V10H6V16H10V10H16V6H10V0H6ZM20 6V10H38V14H26C23.8 14 22 15.8 22 18V30C22 32.2 23.8 34 26 34H38V38H10V20H6V38C6 39.0609 6.42143 40.0783 7.17157 40.8284C7.92172 41.5786 8.93913 42 10 42H38C40.2 42 42 40.2 42 38V33.44C42.6046 33.091 43.1072 32.5898 43.4581 31.9863C43.809 31.3829 43.9958 30.6981 44 30V18C43.9958 17.3019 43.809 16.6171 43.4581 16.0137C43.1072 15.4102 42.6046 14.909 42 14.56V10C42 7.8 40.2 6 38 6H20ZM26 18H40V30H26V18ZM32 21C31.2044 21 30.4413 21.3161 29.8787 21.8787C29.3161 22.4413 29 23.2044 29 24C29 24.7956 29.3161 25.5587 29.8787 26.1213C30.4413 26.6839 31.2044 27 32 27C32.7957 27 33.5587 26.6839 34.1213 26.1213C34.6839 25.5587 35 24.7956 35 24C35 23.2044 34.6839 22.4413 34.1213 21.8787C33.5587 21.3161 32.7957 21 32 21Z" fill="white"/>
</svg>
