<svg width="48" height="48" viewBox="0 0 48 48" fill="none" xmlns="http://www.w3.org/2000/svg">
<path d="M20 6V10H38V14H26C23.8 14 22 15.8 22 18V30C22 32.2 23.8 34 26 34H38V38H10V20H6V38C6 39.0609 6.42143 40.0783 7.17157 40.8284C7.92172 41.5786 8.93913 42 10 42H38C40.2 42 42 40.2 42 38V33.44C42.6046 33.091 43.1072 32.5898 43.4581 31.9863C43.809 31.3829 43.9958 30.6981 44 30V18C43.9958 17.3019 43.809 16.6171 43.4581 16.0137C43.1072 15.4102 42.6046 14.909 42 14.56V10C42 7.8 40.2 6 38 6H20ZM26 18H40V30H26V18ZM32 21C31.2044 21 30.4413 21.3161 29.8787 21.8787C29.3161 22.4413 29 23.2044 29 24C29 24.7956 29.3161 25.5587 29.8787 26.1213C30.4413 26.6839 31.2044 27 32 27C32.7956 27 33.5587 26.6839 34.1213 26.1213C34.6839 25.5587 35 24.7956 35 24C35 23.2044 34.6839 22.4413 34.1213 21.8787C33.5587 21.3161 32.7956 21 32 21Z" fill="white"/>
<path d="M9.2286 9.63353C7.18898 11.6753 7.21697 14.9487 9.21632 16.9591C9.22007 16.9632 9.22451 16.9677 9.2286 16.9718L11.5227 19.2658C13.546 21.2892 16.8379 21.2889 18.8609 19.2658C20.8843 17.2428 20.8843 13.9506 18.8609 11.9276L17.5942 10.6609C17.2583 10.325 16.6798 10.5482 16.6624 11.0229C16.6403 11.6279 16.5318 12.2358 16.3316 12.8227C16.2638 13.0215 16.3123 13.2413 16.4608 13.3898L16.9075 13.8366C17.8643 14.7933 17.8943 16.3512 16.947 17.3173C15.9903 18.2929 14.4178 18.2987 13.4538 17.3347L11.1598 15.041C10.1974 14.0786 10.2014 12.5231 11.1598 11.5647C11.2861 11.4386 11.4134 11.3406 11.5128 11.2722C11.5831 11.2239 11.6412 11.1598 11.6824 11.0851C11.7235 11.0104 11.7467 10.9271 11.7499 10.8418C11.7635 10.4811 11.6357 10.1094 11.3506 9.82433L10.6319 9.10556C10.4434 8.91709 10.1477 8.89394 9.92918 9.04647C9.67889 9.22124 9.44446 9.41768 9.2286 9.63353ZM4.4174 4.82209C6.44044 2.79902 9.73231 2.79875 11.7557 4.82209L14.0497 7.11615C14.0538 7.12025 14.0582 7.12468 14.062 7.12878C16.0613 9.13922 16.0893 12.4127 14.0497 14.4544C13.8339 14.6702 13.5994 14.8667 13.3492 15.0414C13.1306 15.194 12.8349 15.1708 12.6465 14.9823L11.9277 14.2636C11.6427 13.9785 11.5149 13.6068 11.5284 13.2461C11.5317 13.1608 11.5548 13.0775 11.596 13.0028C11.6372 12.9281 11.6952 12.864 11.7656 12.8157C11.865 12.7473 11.9922 12.6493 12.1186 12.5232C13.0769 11.5648 13.0809 10.0093 12.1186 9.04695L9.82451 6.75323C8.8605 5.78921 7.28808 5.79502 6.33137 6.77064C5.38405 7.73674 5.41402 9.29458 6.3708 10.2513L6.81756 10.6981C6.96606 10.8466 7.0145 11.0664 6.9467 11.2652C6.74652 11.8521 6.63803 12.46 6.61591 13.065C6.59853 13.5397 6.02007 13.7629 5.68415 13.427L4.41744 12.1603C2.39406 10.1373 2.39406 6.84509 4.4174 4.82209Z" fill="white"/>
</svg>
