<svg width="101" height="81" viewBox="0 0 101 81" fill="none" xmlns="http://www.w3.org/2000/svg">
<path fill-rule="evenodd" clip-rule="evenodd" d="M29.2942 76.6439C25.5368 76.433 21.8179 76.2574 18.0686 75.9371C17.2617 75.8711 16.667 75.1675 16.7351 74.3661C16.8011 73.5592 17.5101 72.9622 18.3115 73.0303C22.0403 73.346 25.7277 73.5211 29.4591 73.7295C30.2652 73.777 30.8799 74.4669 30.8357 75.2654C30.7882 76.0714 30.1003 76.6914 29.2942 76.6439Z" fill="white"/>
<path fill-rule="evenodd" clip-rule="evenodd" d="M46.3224 50.5915C37.8033 42.2947 29.7088 33.5726 21.3722 25.0995C20.807 24.522 20.8162 23.5993 21.3882 23.0362C21.9657 22.471 22.8862 22.4748 23.4568 23.0502C31.7762 31.511 39.8534 40.221 48.3587 48.4981C48.9382 49.0638 48.9477 49.9856 48.3873 50.563C47.8215 51.1425 46.8998 51.1518 46.3224 50.5915Z" fill="white"/>
<path fill-rule="evenodd" clip-rule="evenodd" d="M85.2668 32.6667C83.2035 22.8277 81.4124 12.9157 79.2393 3.10005C79.0696 2.31469 79.5656 1.53697 80.3489 1.36188C81.1376 1.18469 81.9174 1.68612 82.0925 2.46939C84.2644 12.298 86.0597 22.221 88.1217 32.0729C88.2859 32.8604 87.7824 33.6349 86.9949 33.7991C86.202 33.9653 85.4331 33.4596 85.2668 32.6667Z" fill="white"/>
</svg>
